<svg width="53" height="42" viewBox="0 0 53 42" fill="none" xmlns="http://www.w3.org/2000/svg">
<path d="M19.9181 36.3704V39.7285H5.78033V36.3704H11.1661V6.81943C7.80001 10.1775 3.76066 12.864 0.394531 14.8788V10.1775C5.78033 7.49104 9.14646 4.13297 12.5126 0.774902H15.8787V36.3704H19.9181Z" fill="#0C0A35"/>
<path d="M36.7491 41.0717C32.7097 41.0717 28.6704 39.0569 26.6507 35.0272C23.9578 30.9975 22.6113 26.2962 22.6113 20.9233C22.6113 15.5504 23.9578 10.8491 26.6507 6.81943C29.3436 2.78974 32.7097 0.774902 37.4223 0.774902C42.1349 0.774902 46.1742 2.78974 48.1939 6.81943C50.8868 10.8491 52.2332 15.5504 52.2332 20.9233C52.2332 26.2962 50.8868 30.9975 48.1939 35.0272C45.501 39.0569 41.4616 41.0717 36.7491 41.0717ZM36.7491 37.042C40.1152 37.042 42.1349 35.6988 44.1545 32.3407C45.501 29.6543 46.8474 25.6246 46.8474 20.9233C46.8474 16.222 46.1742 12.1923 44.1545 8.83427C42.8081 6.14781 40.1152 4.13297 36.7491 4.13297C33.3829 4.13297 31.3633 5.4762 29.3436 8.83427C27.9971 11.5207 26.6507 15.5504 26.6507 20.2517C26.6507 24.953 27.3239 28.9827 29.3436 32.3407C31.3633 35.6988 34.0562 37.042 36.7491 37.042Z" fill="#0C0A35"/>
</svg>
