<svg width="53" height="42" viewBox="0 0 53 42" fill="none" xmlns="http://www.w3.org/2000/svg">
<path d="M32.0244 5.64078V2.28271H46.8354V5.64078H41.4496V35.1918C44.8157 31.8337 48.1818 29.1473 52.2212 27.1324V31.8337C46.8354 34.5202 43.4692 37.8783 40.1031 41.2363H36.737V5.64078H32.0244Z" fill="#0C0A35"/>
<path d="M15.1938 0.938477C19.9064 0.938477 23.2725 2.9533 25.9654 6.98299C28.6583 11.0127 30.0047 15.714 30.0047 21.0869C30.0047 26.4598 28.6583 31.1611 25.9654 35.1908C23.2725 39.2205 19.9064 41.2353 15.1938 41.2353C10.4812 41.2353 6.44186 39.2205 4.42218 35.1908C1.72928 31.1611 0.382812 26.4598 0.382812 21.0869C0.382812 15.714 1.72928 11.0127 4.42218 6.98299C7.11508 2.9533 10.4812 0.938477 15.1938 0.938477ZM15.1938 4.96815C11.8277 4.96815 9.80798 6.31138 7.78831 9.66945C6.44186 12.3559 5.76861 16.3856 5.76861 21.0869C5.76861 25.7882 6.44185 29.8179 8.46152 33.1759C9.80797 36.534 12.5009 37.8773 15.867 37.8773C19.2331 37.8773 21.2528 36.534 23.2725 33.1759C24.6189 30.4895 25.9654 26.4598 25.9654 21.7585C25.9654 17.0572 25.2922 13.0275 23.2725 9.66945C20.5796 6.31138 18.5599 4.96815 15.1938 4.96815Z" fill="#0C0A35"/>
</svg>
