<svg width="54" height="43" viewBox="0 0 54 43" fill="none" xmlns="http://www.w3.org/2000/svg">
<path d="M22.4782 37.0717L22.712 40.2974L8.4848 41.3284L8.25103 38.1027L13.4245 37.7278L11.3674 9.3416C8.36773 12.8016 5.3213 15.6165 1.58142 17.8331L1.25415 13.3172C6.24065 10.3617 9.24033 6.90162 12.24 3.44158L15.4735 3.20726L17.9514 37.3997L22.4782 37.0717Z" fill="#D6002B"/>
<path d="M38.9728 40.4162C34.4459 40.7443 31.0722 39.0432 28.205 35.3598C25.3377 31.6764 23.717 27.2541 23.343 22.093C22.969 16.9319 23.9351 12.3222 26.2413 8.26386C28.5476 4.20555 31.6408 2.03579 36.1676 1.70773C40.6944 1.37968 44.7148 3.03392 46.9354 6.76417C49.8027 10.4476 51.4233 14.8698 51.7973 20.0309C52.1714 25.1921 51.2053 29.8018 48.899 33.8601C46.5928 37.9184 43.4996 40.0881 38.9728 40.4162ZM38.6923 36.5454C41.9257 36.311 43.7723 34.8801 45.4786 31.5138C46.5849 28.8395 46.9979 25.567 46.6706 21.051C46.3433 16.535 45.4161 12.711 43.2423 9.62589C41.7151 6.49391 39.0349 5.39111 35.8014 5.62544C32.568 5.85976 30.7214 7.29062 29.0151 10.6569C27.9087 13.3312 26.8959 17.2958 27.2232 21.8118C27.5504 26.3278 28.4776 30.1518 30.6515 33.2369C32.7785 35.6768 35.4588 36.7797 38.6923 36.5454Z" fill="#D6002B"/>
</svg>
