<svg width="31" height="42" viewBox="0 0 31 42" fill="none" xmlns="http://www.w3.org/2000/svg">
<path d="M2.1631 32.6048L6.19733 31.2597C7.54208 34.6224 10.2316 36.6401 14.2658 36.6401C17.6276 36.6401 20.9895 35.295 22.3343 31.9322C24.3514 28.5695 25.0237 24.5341 25.0237 19.1537C22.3343 23.8616 18.9724 25.8792 13.5934 25.8792C10.2316 25.8792 6.86971 24.5341 4.85259 22.5165C2.1631 19.8263 0.818359 17.1361 0.818359 13.7733C0.818359 10.4105 2.1631 7.04779 4.85259 4.35758C7.54208 1.66737 10.9039 0.322266 14.9382 0.322266C19.6448 0.322266 23.679 2.33992 26.3685 5.70268C29.058 9.06544 30.4027 13.7733 30.4027 19.8263C30.4027 25.8792 29.058 31.2597 26.3685 35.295C23.679 39.3303 19.6448 41.3479 14.9382 41.3479C8.21445 40.6754 4.18022 37.9852 2.1631 32.6048ZM14.9382 22.5165C17.6276 22.5165 19.6448 21.8439 21.6619 19.8263C23.679 17.8086 24.3514 15.791 24.3514 13.1008C24.3514 10.4105 23.679 8.39289 21.6619 7.04779C20.3171 5.03013 17.6276 4.35758 14.9382 4.35758C12.2487 4.35758 9.55919 5.03013 8.21445 7.04779C6.8697 8.39289 5.52496 11.0831 5.52496 13.1008C5.52496 15.791 6.19733 17.8086 8.21445 19.8263C10.2316 21.8439 12.2487 22.5165 14.9382 22.5165Z" fill="#0C0A35"/>
</svg>
