<svg width="30" height="42" viewBox="0 0 30 42" fill="none" xmlns="http://www.w3.org/2000/svg">
<path d="M29.1131 9.03155L25.0789 10.3767C23.7342 7.0139 21.0447 4.99624 17.0105 4.99624C13.6486 4.99624 10.2867 6.34135 8.942 9.70411C6.92488 13.0669 6.2525 17.1022 6.2525 22.4826C8.94199 17.7747 12.3039 15.7571 17.6828 15.7571C21.0447 15.7571 24.4065 17.1022 26.4237 19.1198C29.1131 21.81 29.7855 24.5003 29.7855 28.5356C29.7855 31.8983 28.4408 35.2611 25.7513 37.9513C23.0618 40.6415 19.6999 41.9866 15.6657 41.9866C10.9591 41.9866 6.92488 39.969 4.23539 36.6062C1.5459 33.2435 0.201172 28.5356 0.201172 22.4826C0.201172 16.4296 1.5459 11.0492 4.23539 7.0139C6.92488 2.97858 10.9591 0.960938 15.6657 0.960938C23.0618 0.960937 27.096 3.65113 29.1131 9.03155ZM16.3381 19.1198C13.6486 19.1198 11.6315 19.7924 9.61436 21.8101C7.59724 23.8277 6.92489 25.8454 6.92489 28.5356C6.92489 31.2258 7.59724 33.2435 9.61436 34.5886C11.6315 36.6062 13.6486 37.2788 16.3381 37.2788C19.0276 37.2788 21.717 36.6062 23.0618 34.5886C24.4065 32.5709 25.7513 30.5532 25.7513 27.863C25.7513 25.1728 25.0789 23.1552 23.0618 21.1375C20.3723 19.7924 18.3552 19.1198 16.3381 19.1198Z" fill="#0C0A35"/>
</svg>
