<svg width="32" height="42" viewBox="0 0 32 42" fill="none" xmlns="http://www.w3.org/2000/svg">
<path d="M3.88104 34.2043L7.78298 32.5134C9.41513 35.7465 12.2699 37.5225 16.2889 37.1716C19.638 36.8792 22.8701 35.2468 23.9172 31.7798C25.6342 28.2543 25.953 24.1758 25.485 18.8158C23.2152 23.7398 20.0416 26.0422 14.683 26.5101C11.3339 26.8025 7.8678 25.7549 5.68283 23.9203C2.76954 21.4743 1.19589 18.9112 0.903395 15.5612C0.610896 12.2112 1.65804 8.7442 4.10334 5.83025C6.54863 2.9163 9.78075 1.28387 13.7997 0.932966C18.4884 0.523577 22.6829 2.18268 25.6547 5.29876C28.6265 8.41484 30.3756 12.9879 30.9021 19.0179C31.4286 25.048 30.557 30.5249 28.2287 34.7789C25.9004 39.0329 22.0569 41.3938 17.3682 41.8032C10.6114 41.718 6.35851 39.3889 3.88104 34.2043ZM15.7302 23.0431C18.4095 22.8091 20.3604 21.9637 22.1944 19.7782C24.0284 17.5928 24.5227 15.5243 24.2887 12.8442C24.0547 10.1642 23.2094 8.21271 21.0829 7.04816C19.5678 5.15511 16.83 4.71905 14.1507 4.95298C11.4714 5.18692 8.8506 6.09086 7.68645 8.21784C6.46381 9.67481 5.35816 12.4718 5.53366 14.4818C5.76766 17.1618 6.61298 19.1133 8.79795 20.9479C10.9829 22.7825 13.0509 23.277 15.7302 23.0431Z" fill="#D6002B"/>
</svg>
