<svg width="28" height="28" viewBox="0 0 28 28" fill="none" xmlns="http://www.w3.org/2000/svg">
<path d="M15.2009 15.222C15.3126 15.8565 15.5359 17.1256 15.6475 17.7601C15.7592 18.3946 15.8708 19.0291 15.9825 19.6637C16.4291 22.2018 18.0341 23.8819 19.5274 24.9275C18.2574 25.151 14.4474 25.8214 12.5424 26.1566C14.2241 24.5523 14.4125 21.9025 14.0775 19.9989C13.9658 19.3644 13.8542 18.7298 13.7425 18.0953C13.6309 17.4608 13.5192 16.8262 13.2959 15.5572L15.2009 15.222Z" fill="#0C0A35"/>
<path d="M15.0122 17.872C16.6172 19.5521 19.4922 21.0087 21.9205 19.9272C24.4606 19.4802 26.6656 17.1297 26.219 14.5916C26.5191 12.5763 24.8024 10.2616 23.3091 9.21604C21.7041 7.53594 19.0524 7.34838 17.5591 6.3028C15.4307 5.36896 12.3324 2.64328 12.3324 2.64328C12.3324 2.64328 10.3507 6.26288 8.66899 7.86716C6.98728 9.47144 5.30555 11.0757 4.25885 12.5683C3.3238 14.6953 2.38876 16.8224 3.35874 18.6142C4.44037 21.0406 7.31536 22.4972 9.22038 22.162C11.7604 21.7151 14.0771 19.999 15.0122 17.872Z" fill="#0C0A35"/>
</svg>
