<svg width="26" height="24" viewBox="0 0 26 24" fill="none" xmlns="http://www.w3.org/2000/svg">
<path d="M13.9372 13.5801C13.9372 14.2244 13.9372 15.5129 13.9372 16.1572C13.9372 16.8015 13.9372 17.4458 13.9372 18.09C13.9372 20.6671 15.2267 22.6 16.5162 23.8885C15.2267 23.8885 11.3581 23.8885 9.42383 23.8885C11.3581 22.6 12.0029 20.0229 12.0029 18.09C12.0029 17.4458 12.0029 16.8015 12.0029 16.1572C12.0029 15.5129 12.0029 14.2244 12.0029 13.5801H13.9372Z" fill="#0C0A35"/>
<path d="M13.2911 16.156C14.5807 18.0889 17.1597 20.0217 19.7388 19.3774C22.3178 19.3774 24.8969 17.4446 24.8969 14.8675C25.5416 12.9346 24.2521 10.3575 22.9626 9.06897C21.6731 7.13613 19.094 6.49186 17.8045 5.20331C15.2254 3.91475 12.6464 0.693359 12.6464 0.693359C12.6464 0.693359 10.0673 3.91475 8.13303 5.20331C6.19874 6.49186 4.26445 7.78041 2.97493 9.06897C1.6854 11.0018 0.395876 12.9346 1.04064 14.8675C1.6854 17.4446 4.26445 19.3774 6.19874 19.3774C8.7778 19.3774 11.3568 18.0889 12.6464 16.156H13.2911V16.156Z" fill="#0C0A35"/>
</svg>
