<svg width="47" height="71" viewBox="0 0 47 71" fill="none" xmlns="http://www.w3.org/2000/svg">
<path d="M43.6413 64.8119C43.6457 64.9402 43.6544 65.1969 43.6587 65.3252C43.6631 65.4536 43.6674 65.5819 43.6718 65.7103C43.6891 66.2236 43.959 66.5999 44.2246 66.8479C43.9677 66.8566 43.1971 66.8827 42.8118 66.8957C43.1884 66.626 43.2995 66.1083 43.2865 65.7233C43.2821 65.595 43.2778 65.4666 43.2734 65.3383C43.2691 65.21 43.2604 64.9533 43.256 64.8249L43.6413 64.8119Z" fill="#060709"/>
<path d="M43.5299 65.3298C43.7998 65.7061 44.3266 66.0737 44.8359 65.928C45.3497 65.9106 45.8504 65.5082 45.833 64.9949C45.9484 64.6055 45.6741 64.1009 45.4086 63.8529C45.1387 63.4766 44.6206 63.3656 44.355 63.1177C43.961 62.874 43.4256 62.2497 43.4256 62.2497C43.4256 62.2497 42.9336 62.9088 42.557 63.1785C42.1803 63.4483 41.8037 63.718 41.5556 63.9834C41.3117 64.3771 41.0679 64.7708 41.2094 65.1514C41.3552 65.6604 41.882 66.028 42.2673 66.015C42.781 65.9976 43.286 65.7235 43.5299 65.3298Z" fill="#060709"/>
<path d="M25.5599 39.934C25.5768 40.4315 25.6105 41.4267 25.6273 41.9242C25.6442 42.4218 25.661 42.9194 25.6779 43.4169C25.7453 45.4072 26.7917 46.8662 27.8213 47.8276C26.8254 47.8614 23.8378 47.9625 22.3439 48.0131C23.8041 46.9674 24.2346 44.9602 24.184 43.4675C24.1672 42.97 24.1503 42.4724 24.1335 41.9748C24.1166 41.4773 24.0829 40.4821 24.0661 39.9845L25.5599 39.934Z" fill="#060709"/>
<path d="M25.1265 41.9425C26.173 43.4015 28.2153 44.8268 30.1902 44.2618C32.182 44.1943 34.1233 42.6341 34.0559 40.6439C34.5033 39.1343 33.44 37.1777 32.4104 36.2163C31.3639 34.7573 29.3553 34.3272 28.3257 33.3658C26.7982 32.4212 24.7221 30.0008 24.7221 30.0008C24.7221 30.0008 22.8146 32.5561 21.3545 33.6018C19.8943 34.6476 18.4342 35.6933 17.472 36.7222C16.5266 38.2486 15.5813 39.775 16.1298 41.2509C16.6951 43.2243 18.7375 44.6496 20.2313 44.599C22.2231 44.5315 24.1812 43.469 25.1265 41.9425Z" fill="#060709"/>
<path d="M4.67151 10.791L3.77393 10.791C3.77393 9.50691 4.03038 8.35121 4.54328 7.19552C5.05619 6.03982 5.69732 5.01253 6.33845 4.24207L2.36344 4.24207L2.49167 3.4716L7.36426 3.4716L7.36426 3.98525C6.46668 5.01253 5.82554 6.16823 5.44087 7.32392C5.05619 8.47962 4.79974 9.50691 4.79974 10.5342C4.67151 10.5342 4.67151 10.6626 4.67151 10.791Z" fill="#060709"/>
<path d="M4.19949 14.6786C4.19514 14.5502 4.18645 14.2936 4.1821 14.1652C4.17776 14.0369 4.17341 13.9086 4.16906 13.7802C4.15168 13.2669 3.88177 12.8906 3.61621 12.6426C3.87308 12.6339 4.64368 12.6078 5.02898 12.5947C4.65237 12.8645 4.54133 13.3822 4.55436 13.7672C4.55871 13.8955 4.56306 14.0238 4.5674 14.1522C4.57175 14.2805 4.58044 14.5372 4.58479 14.6655L4.19949 14.6786Z" fill="#060709"/>
<path d="M4.31094 14.1609C4.04103 13.7846 3.51426 13.417 3.00487 13.5627C2.49113 13.5801 1.99043 13.9825 2.00782 14.4959C1.89242 14.8852 2.16667 15.3899 2.43223 15.6379C2.70214 16.0142 3.22022 16.1251 3.48578 16.3731C3.87977 16.6167 4.41524 17.241 4.41524 17.241C4.41524 17.241 4.90725 16.5819 5.28386 16.3122C5.66047 16.0425 6.03708 15.7728 6.28526 15.5074C6.52909 15.1137 6.77292 14.72 6.63144 14.3393C6.48563 13.8303 5.95885 13.4627 5.57355 13.4757C5.05981 13.4931 4.55477 13.7672 4.31094 14.1609Z" fill="#060709"/>
</svg>
