<svg width="24" height="24" viewBox="0 0 24 24" fill="none" xmlns="http://www.w3.org/2000/svg">
<path fill-rule="evenodd" clip-rule="evenodd" d="M12 24C18.6274 24 24 18.6274 24 12C24 5.37258 18.6274 0 12 0C5.37258 0 0 5.37258 0 12C0 18.6274 5.37258 24 12 24ZM14.0021 6.75115C15.0025 6.92031 15.9592 7.21781 16.8517 7.62031C16.8595 7.62341 16.8659 7.62921 16.8698 7.63664C18.4512 9.92448 19.2317 12.5063 18.94 15.4778C18.9393 15.4841 18.9373 15.4901 18.9341 15.4956C18.9309 15.501 18.9265 15.5057 18.9213 15.5093C17.8606 16.2821 16.6769 16.87 15.4202 17.2482C15.4113 17.2509 15.4019 17.2507 15.3931 17.2478C15.3843 17.2449 15.3767 17.2393 15.3712 17.2319C15.1069 16.8696 14.8666 16.4881 14.6566 16.0874C14.6537 16.0819 14.6521 16.0758 14.6518 16.0696C14.6514 16.0634 14.6524 16.0572 14.6547 16.0514C14.657 16.0456 14.6604 16.0403 14.6649 16.036C14.6693 16.0316 14.6747 16.0283 14.6805 16.0261C15.0614 15.885 15.4243 15.7152 15.7731 15.5146C15.7793 15.5109 15.7845 15.5057 15.7882 15.4995C15.792 15.4933 15.7941 15.4863 15.7945 15.479C15.7948 15.4718 15.7934 15.4646 15.7902 15.4581C15.7871 15.4516 15.7824 15.4459 15.7766 15.4416C15.7025 15.3874 15.6296 15.3308 15.5596 15.2736C15.5532 15.2685 15.5455 15.2653 15.5373 15.2644C15.5292 15.2635 15.5209 15.2649 15.5135 15.2684C13.2496 16.2974 10.7687 16.2974 8.47793 15.2684C8.47055 15.2651 8.46239 15.2638 8.45435 15.2649C8.44632 15.2659 8.43873 15.2691 8.43243 15.2742C8.36243 15.3308 8.28893 15.3874 8.21543 15.4416C8.20965 15.446 8.20504 15.4517 8.20202 15.4583C8.199 15.4649 8.19766 15.4721 8.19812 15.4794C8.19859 15.4866 8.20084 15.4936 8.20467 15.4997C8.20851 15.5059 8.21381 15.511 8.2201 15.5146C8.57015 15.7136 8.93527 15.8848 9.3121 16.0267C9.3366 16.0361 9.34826 16.0641 9.33601 16.0874C9.13068 16.4887 8.89035 16.8708 8.62085 17.2325C8.61515 17.2396 8.60743 17.2449 8.59869 17.2476C8.58995 17.2503 8.58059 17.2503 8.57185 17.2476C7.31729 16.8684 6.13549 16.2807 5.07593 15.5093C5.0709 15.5055 5.0667 15.5006 5.06359 15.4951C5.06048 15.4896 5.05853 15.4835 5.05785 15.4772C4.81343 12.9071 5.31101 10.3042 7.12635 7.63548C7.13082 7.62845 7.13733 7.62295 7.14501 7.61973C8.0381 7.21665 8.99476 6.91915 9.9946 6.74998C10.0036 6.74855 10.0129 6.7499 10.0211 6.75386C10.0293 6.75782 10.0362 6.7642 10.0407 6.77215C10.1739 7.00444 10.294 7.24398 10.4006 7.48965C11.4616 7.33112 12.5403 7.33112 13.6013 7.48965C13.697 7.26798 13.8335 6.9874 13.956 6.77215C13.9606 6.7643 13.9675 6.75806 13.9757 6.7543C13.984 6.75054 13.9932 6.74943 14.0021 6.75115ZM8.42018 12.5238C8.42018 13.2886 8.98893 13.9121 9.67843 13.9121C10.379 13.9121 10.9367 13.2891 10.9367 12.5238C10.9478 11.7637 10.3843 11.1355 9.67843 11.1355C8.97785 11.1355 8.42018 11.7585 8.42018 12.5238ZM13.0723 12.5238C13.0723 13.2886 13.6404 13.9121 14.3305 13.9121C15.0369 13.9121 15.5888 13.2891 15.5888 12.5238C15.5998 11.7637 15.0363 11.1355 14.3305 11.1355C13.6293 11.1355 13.0723 11.7585 13.0723 12.5238Z" fill="white"/>
</svg>
