<svg width="37" height="37" viewBox="0 0 37 37" fill="none" xmlns="http://www.w3.org/2000/svg">
<circle cx="18.5" cy="18.5" r="18.5" fill="white"/>
<g clip-path="url(#clip0_187_95)">
<path d="M26.3198 11.9318C24.9166 11.2878 23.436 10.8282 21.9147 10.5644C21.901 10.5621 21.8868 10.5641 21.8742 10.5702C21.8616 10.5762 21.8512 10.586 21.8444 10.5982C21.6537 10.9364 21.4427 11.3786 21.2953 11.7249C19.6555 11.476 17.9876 11.476 16.3479 11.7249C16.1834 11.3392 15.9974 10.963 15.7906 10.5982C15.7837 10.5862 15.7733 10.5765 15.7607 10.5704C15.7482 10.5644 15.7341 10.5623 15.7203 10.5644C14.1987 10.8268 12.7177 11.2867 11.3152 11.9318C11.3032 11.9364 11.2932 11.945 11.2868 11.9561C8.48172 16.1475 7.71215 20.2361 8.08949 24.2734C8.09085 24.2923 8.10302 24.3112 8.1179 24.3234C9.75134 25.5334 11.5784 26.4572 13.5211 27.0554C13.5348 27.0598 13.5496 27.0596 13.5632 27.055C13.5768 27.0504 13.5886 27.0415 13.5969 27.0297C14.0134 26.4617 14.384 25.8625 14.7032 25.2323C14.7099 25.2193 14.7121 25.2045 14.7097 25.1901C14.7073 25.1758 14.7003 25.1625 14.6897 25.1525C14.6827 25.1459 14.6744 25.1408 14.6653 25.1376C14.0826 24.9137 13.5183 24.6446 12.9774 24.3329C12.9623 24.3243 12.9511 24.3103 12.9461 24.2936C12.941 24.277 12.9426 24.2591 12.9504 24.2436C12.955 24.2335 12.9619 24.2247 12.9707 24.2179C13.0843 24.1327 13.1979 24.0434 13.3061 23.9542C13.3156 23.9465 13.3271 23.9415 13.3393 23.9399C13.3514 23.9382 13.3638 23.9399 13.3751 23.9447C16.9173 25.5623 20.7516 25.5623 24.2505 23.9447C24.2622 23.9396 24.275 23.9378 24.2877 23.9395C24.3003 23.9412 24.3122 23.9462 24.3222 23.9542C24.4304 24.0434 24.544 24.1327 24.6576 24.2179C24.6668 24.2246 24.6742 24.2335 24.6791 24.2438C24.6841 24.2541 24.6864 24.2654 24.6858 24.2768C24.6853 24.2882 24.6819 24.2993 24.6761 24.3091C24.6702 24.3189 24.662 24.327 24.6522 24.3329C24.1126 24.6474 23.5475 24.9162 22.9629 25.1363C22.9536 25.1396 22.9451 25.145 22.9381 25.152C22.9311 25.159 22.9257 25.1675 22.9224 25.1768C22.9192 25.1859 22.918 25.1954 22.9187 25.205C22.9194 25.2145 22.922 25.2238 22.9264 25.2323C23.251 25.8612 23.623 26.4617 24.0314 27.0297C24.0397 27.0415 24.0515 27.0504 24.0651 27.055C24.0787 27.0596 24.0934 27.0598 24.1072 27.0554C26.0531 26.459 27.8832 25.5351 29.5185 24.3234C29.5267 24.3177 29.5335 24.3103 29.5384 24.3016C29.5433 24.293 29.5462 24.2833 29.5469 24.2734C29.9986 19.6059 28.7909 15.5511 26.3469 11.9575C26.3444 11.9516 26.3407 11.9462 26.3361 11.9418C26.3314 11.9373 26.3259 11.9339 26.3198 11.9318ZM15.232 21.8145C14.1649 21.8145 13.2872 20.8353 13.2872 19.6343C13.2872 18.4319 14.1487 17.4527 15.232 17.4527C16.3235 17.4527 17.1932 18.44 17.1769 19.6343C17.1769 20.8353 16.3154 21.8145 15.232 21.8145ZM22.4219 21.8145C21.3562 21.8145 20.477 20.8353 20.477 19.6343C20.477 18.4319 21.3386 17.4527 22.4219 17.4527C23.5134 17.4527 24.3844 18.44 24.3668 19.6343C24.3668 20.8353 23.5134 21.8145 22.4219 21.8145Z" fill="black"/>
</g>
<defs>
<clipPath id="clip0_187_95">
<rect width="21.64" height="21.64" fill="white" transform="translate(8 8)"/>
</clipPath>
</defs>
</svg>
