<svg width="28" height="22" viewBox="0 0 28 22" fill="none" xmlns="http://www.w3.org/2000/svg">
<path d="M11.8911 3.6607C10.4102 5.01014 8.92937 5.68484 8.18894 6.35956C6.70808 7.03428 5.2272 8.38371 3.74634 9.73315C3.00591 11.0826 2.26548 11.7573 1.52505 13.1067C0.784619 14.4562 0.784619 17.1551 1.52505 18.5045C3.74634 21.8781 10.4102 24.577 14.1124 17.1551C18.555 24.577 24.4784 21.8781 26.6997 18.5045C27.4402 17.1551 27.4402 14.4562 26.6997 13.1067C25.9593 11.7573 25.9593 11.0826 24.4784 9.73315C22.9976 8.38371 21.5167 7.70899 20.0358 6.35956C18.555 5.68484 17.0741 4.33542 16.3337 3.6607C15.5932 2.98598 12.6315 0.287109 12.6315 0.287109C12.6315 0.287109 12.6315 2.98598 11.8911 3.6607Z" fill="#D6002B"/>
</svg>
