<svg width="27" height="23" viewBox="0 0 27 23" fill="none" xmlns="http://www.w3.org/2000/svg">
<path d="M16.205 19.0144C17.6858 17.665 19.1667 16.9903 19.9071 16.3155C21.388 15.6408 22.8689 14.2914 24.3497 12.942C25.0902 12.2672 25.0902 10.9178 25.8306 9.56837C26.571 8.21893 26.571 5.52006 25.8306 4.17062C23.6093 0.797032 16.9454 -1.90184 13.2433 5.52006C8.80066 -1.90184 2.87721 0.797032 0.65591 4.17062C-0.084522 5.52006 -0.084522 8.21893 0.65591 9.56837C1.39634 10.9178 1.39634 11.5925 2.8772 12.942C4.35807 14.2914 5.83893 14.9661 7.3198 16.3155C8.80066 16.9903 10.2815 18.3397 11.022 19.0144C11.7624 19.6891 14.7241 22.388 14.7241 22.388C14.7241 22.388 15.4645 19.6891 16.205 19.0144Z" fill="#D6002B"/>
</svg>
