<?xml version="1.0" encoding="UTF-8"?>
<svg xmlns="http://www.w3.org/2000/svg" xmlns:xlink="http://www.w3.org/1999/xlink" viewBox="0 0 60 60" width="60px" height="60px">
<g id="surface78111892">
<path style=" stroke:none;fill-rule:nonzero;fill:rgb(80.000001%,80.000001%,80.000001%);fill-opacity:1;" d="M 30 30.300781 C 29.835938 30.300781 29.699219 30.164062 29.699219 30 C 29.699219 29.835938 29.835938 29.699219 30 29.699219 C 30.164062 29.699219 30.300781 29.835938 30.300781 30 C 30.300781 30.164062 30.164062 30.300781 30 30.300781 Z M 30 30.300781 "/>
<path style=" stroke:none;fill-rule:nonzero;fill:rgb(0%,0%,0%);fill-opacity:1;" d="M 30 21.78125 C 26.871094 21.78125 22.8125 22.5625 22.8125 22.5625 L 22.800781 22.574219 C 21.375 22.804688 20.285156 24.027344 20.285156 25.515625 L 20.285156 34.488281 C 20.285156 35.957031 21.355469 37.207031 22.808594 37.433594 L 22.8125 37.4375 C 22.8125 37.4375 26.871094 38.222656 30 38.222656 C 33.128906 38.222656 37.1875 37.4375 37.1875 37.4375 L 37.191406 37.4375 C 38.644531 37.207031 39.714844 35.957031 39.714844 34.488281 L 39.714844 25.515625 C 39.714844 24.046875 38.644531 22.796875 37.191406 22.566406 L 37.1875 22.5625 C 37.1875 22.5625 33.128906 21.78125 30 21.78125 Z M 27.757812 26.5625 L 33.738281 30 L 27.757812 33.441406 Z M 27.757812 26.5625 "/>
</g>
</svg>
