<?xml version="1.0" encoding="UTF-8"?>
<svg xmlns="http://www.w3.org/2000/svg" xmlns:xlink="http://www.w3.org/1999/xlink" viewBox="0 0 90 90" width="90px" height="90px">
<g id="surface78122791">
<path style=" stroke:none;fill-rule:nonzero;fill:rgb(100%,100%,100%);fill-opacity:1;" d="M 45 90 C 20.148438 90 0 69.851562 0 45 C 0 20.148438 20.148438 0 45 0 C 69.851562 0 90 20.148438 90 45 C 90 69.851562 69.851562 90 45 90 Z M 45 90 "/>
<path style=" stroke:none;fill-rule:nonzero;fill:rgb(0%,0%,0%);fill-opacity:1;" d="M 45 21.75 C 36.152344 21.75 24.667969 23.96875 24.667969 23.96875 L 24.640625 24 C 20.609375 24.644531 17.523438 28.105469 17.523438 32.320312 L 17.523438 57.6875 C 17.53125 61.84375 20.554688 65.375 24.660156 66.023438 L 24.667969 66.035156 C 24.667969 66.035156 36.152344 68.257812 45 68.257812 C 53.847656 68.257812 65.332031 66.035156 65.332031 66.035156 L 65.335938 66.03125 C 69.445312 65.386719 72.472656 61.847656 72.476562 57.6875 L 72.476562 32.320312 C 72.472656 28.164062 69.445312 24.625 65.339844 23.980469 L 65.332031 23.96875 C 65.332031 23.96875 53.847656 21.75 45 21.75 Z M 38.660156 35.273438 L 55.570312 45 L 38.660156 54.726562 Z M 38.660156 35.273438 "/>
</g>
</svg>
