<?xml version="1.0" encoding="UTF-8"?>
<svg xmlns="http://www.w3.org/2000/svg" xmlns:xlink="http://www.w3.org/1999/xlink" viewBox="0 0 90 90" width="90px" height="90px">
<g id="surface78134487">
<path style=" stroke:none;fill-rule:nonzero;fill:rgb(100%,100%,100%);fill-opacity:1;" d="M 45 90 C 20.148438 90 0 69.851562 0 45 C 0 20.148438 20.148438 0 45 0 C 69.851562 0 90 20.148438 90 45 C 90 69.851562 69.851562 90 45 90 Z M 45 90 "/>
<path style=" stroke:none;fill-rule:nonzero;fill:rgb(0%,0%,0%);fill-opacity:1;" d="M 45 28.769531 C 38.824219 28.769531 30.804688 30.316406 30.804688 30.316406 L 30.785156 30.339844 C 27.972656 30.789062 25.816406 33.207031 25.816406 36.148438 L 25.816406 53.859375 C 25.824219 56.757812 27.933594 59.226562 30.800781 59.675781 L 30.804688 59.683594 C 30.804688 59.683594 38.824219 61.234375 45 61.234375 C 51.175781 61.234375 59.195312 59.683594 59.195312 59.683594 C 62.066406 59.230469 64.179688 56.761719 64.183594 53.859375 L 64.183594 36.148438 C 64.179688 33.246094 62.066406 30.777344 59.199219 30.328125 L 59.195312 30.316406 C 59.195312 30.316406 51.175781 28.769531 45 28.769531 Z M 40.574219 38.210938 L 52.378906 45 L 40.574219 51.792969 Z M 40.574219 38.210938 "/>
</g>
</svg>
