<svg width="24" height="24" viewBox="0 0 24 24" fill="none" xmlns="http://www.w3.org/2000/svg">
<path fill-rule="evenodd" clip-rule="evenodd" d="M12 24C18.6274 24 24 18.6274 24 12C24 5.37258 18.6274 0 12 0C5.37258 0 0 5.37258 0 12C0 18.6274 5.37258 24 12 24ZM9.12334 18.9934C9.8653 19.0258 10.0952 19.0359 12.0041 19.0359C13.9076 19.0359 14.1512 19.0359 14.8944 18.9931C15.4757 18.9814 16.0508 18.8709 16.5956 18.667C17.0606 18.4863 17.4829 18.2109 17.8358 17.8583C18.1887 17.5057 18.4644 17.0836 18.6454 16.6187C18.8501 16.0735 18.9607 15.4975 18.9723 14.9152C19.005 14.1782 19.0159 13.9292 19.0159 12.0303C19.0159 10.1315 19.0159 9.8879 18.9723 9.14236C18.9637 8.55325 18.8524 7.96958 18.6447 7.41704C18.4641 6.95205 18.1886 6.52977 17.8358 6.17712C17.483 5.82446 17.0607 5.54916 16.5956 5.36876C16.0508 5.16331 15.4734 5.05281 14.8913 5.04191L14.8784 5.04135C14.1532 5.00989 13.9228 4.99989 12.0041 4.99989C10.106 4.99989 9.86164 4.99989 9.11844 5.04191C8.53738 5.05292 7.96251 5.16347 7.41881 5.36876C6.95363 5.54895 6.53113 5.82418 6.17832 6.17686C5.8255 6.52954 5.55012 6.95193 5.36975 7.41704C5.16556 7.96103 5.0553 8.53575 5.04368 9.11668L5.04365 9.11733C5.01021 9.86001 5.0001 10.0846 5.0001 12.0039C5.0001 13.9035 5.0001 14.1479 5.04368 14.8934C5.05505 15.4751 5.16532 16.0507 5.36975 16.5954C5.55032 17.0599 5.82552 17.4818 6.17787 17.8343C6.53022 18.1868 6.95202 18.4621 7.41647 18.6429C7.95923 18.8555 8.53429 18.9739 9.11689 18.9931L9.12334 18.9934ZM9.14452 6.2741C9.87849 6.24106 10.0838 6.23181 11.9776 6.23181C13.8718 6.23181 14.0687 6.23181 14.8212 6.27461C15.2648 6.28006 15.7045 6.361 16.1209 6.51664C16.423 6.63414 16.6974 6.81329 16.9265 7.04268C17.1557 7.27206 17.3345 7.54665 17.4516 7.84896C17.6048 8.26494 17.6866 8.7038 17.6937 9.14703C17.7271 9.89023 17.7357 10.0902 17.7357 11.9914C17.7357 13.8926 17.7357 14.0911 17.7022 14.835H17.6937C17.689 15.2833 17.6073 15.7284 17.4516 16.1487C17.3342 16.4506 17.1553 16.7247 16.9262 16.9537C16.6971 17.1826 16.4228 17.3614 16.1209 17.4787C15.7048 17.6334 15.2652 17.7153 14.8212 17.7207L14.8174 17.7209C14.0836 17.755 13.8833 17.7643 11.9776 17.7643C10.085 17.7643 9.88655 17.7643 9.13323 17.7207C8.68953 17.7159 8.25003 17.634 7.83438 17.4787C7.22036 17.2436 6.73475 16.7596 6.49662 16.1471C6.34331 15.7308 6.26159 15.2911 6.25459 14.8475C6.22035 14.0981 6.21334 13.8716 6.21334 12.0039C6.21334 10.1136 6.21334 9.91591 6.25459 9.16181C6.25926 8.71356 6.34097 8.26919 6.49662 7.84896C6.61403 7.5458 6.79367 7.27062 7.02395 7.04115C7.25423 6.81167 7.53004 6.633 7.8336 6.51664C8.24979 6.36228 8.68937 6.28042 9.13323 6.27461L9.14452 6.2741ZM10.0047 14.9933C10.5967 15.3884 11.2925 15.5989 12.0041 15.5985C12.9576 15.5964 13.8713 15.2165 14.5452 14.542C15.2191 13.8676 15.5982 12.9535 15.5995 12C15.5993 11.2884 15.3881 10.5928 14.9926 10.0012C14.5971 9.40958 14.035 8.94858 13.3775 8.67646C12.7199 8.40435 11.9964 8.33335 11.2985 8.47244C10.6006 8.61154 9.95966 8.95448 9.45668 9.4579C8.9537 9.96131 8.61132 10.6026 8.47282 11.3006C8.33433 11.9986 8.40596 12.722 8.67864 13.3794C8.95132 14.0367 9.41282 14.5983 10.0047 14.9933ZM10.707 10.0572C11.091 9.80069 11.5423 9.66377 12.0041 9.66377C12.6228 9.66521 13.2158 9.91164 13.6534 10.3492C14.0909 10.7867 14.3373 11.3797 14.3388 11.9984C14.3388 12.4602 14.2018 12.9116 13.9453 13.2955C13.6888 13.6794 13.3241 13.9787 12.8975 14.1554C12.4709 14.3321 12.0015 14.3783 11.5486 14.2882C11.0957 14.1982 10.6797 13.9758 10.3532 13.6493C10.0267 13.3228 9.80437 12.9068 9.71428 12.4539C9.6242 12.001 9.67043 11.5316 9.84714 11.105C10.0238 10.6784 10.3231 10.3138 10.707 10.0572ZM15.4187 9.04385C15.5204 9.08638 15.6294 9.10849 15.7396 9.1089C15.962 9.10972 16.1758 9.02213 16.3337 8.86538C16.4916 8.70864 16.5808 8.49558 16.5816 8.27309C16.5824 8.05059 16.4948 7.83688 16.3381 7.67897C16.1813 7.52105 15.9683 7.43188 15.7458 7.43105C15.5233 7.43022 15.3096 7.51782 15.1517 7.67456C14.9937 7.83131 14.9046 8.04436 14.9037 8.26686C14.9029 8.48936 14.9905 8.70307 15.1473 8.86098C15.2249 8.93917 15.3171 9.00131 15.4187 9.04385Z" fill="white"/>
</svg>
