<svg width="27" height="24" viewBox="0 0 27 24" fill="none" xmlns="http://www.w3.org/2000/svg">
<path d="M11.2886 10.4638C11.2886 9.79223 11.2886 9.12062 11.2886 8.44901C11.2886 7.7774 11.2886 7.10579 11.2886 6.43418C11.2886 4.41934 9.94216 1.73287 8.5957 0.389648C9.94216 0.389648 13.9815 0.389648 16.0012 0.389648C13.9815 1.73287 13.3083 4.41934 13.3083 6.43418C13.3083 7.10579 13.3083 7.7774 13.3083 8.44901C13.3083 9.12062 13.3083 9.79223 13.3083 10.4638H11.2886Z" fill="#0C0A35"/>
<path d="M11.9629 9.11908C11.2897 9.11908 10.6165 8.44747 9.94326 7.10424C8.59681 5.76101 7.92358 4.41777 5.23068 4.41777C3.88423 4.41777 2.53777 5.08939 1.86455 5.76101C1.19132 6.43262 1.19134 7.77586 0.518119 8.44747C-0.155106 10.4623 0.518109 12.4772 1.19133 13.8204C1.86456 15.8352 4.55746 16.5068 6.57713 15.1636C7.25036 14.492 7.92358 13.8204 8.5968 13.8204C8.5968 13.8204 9.27004 13.8204 9.27004 14.492C9.27004 15.8352 7.92359 15.8352 7.92359 17.1785C7.25036 19.1933 7.25037 19.8649 9.27004 22.5514C11.2897 23.8946 15.3291 23.8946 17.3488 22.5514C19.3684 21.2081 19.3684 19.8649 19.3684 17.8501C18.6952 16.5068 18.022 15.8352 18.022 14.492C18.022 13.8204 18.022 13.8204 18.6952 13.8204C19.3684 13.8204 19.3684 14.492 20.0416 15.1636C21.3881 15.8352 24.081 15.1636 25.4274 13.8204C26.1007 11.8055 26.7739 9.7907 26.1007 8.44747C26.1007 7.10425 25.4274 6.43262 24.7542 5.76101C24.081 4.41778 22.0613 3.74616 21.3881 4.41777C18.6952 4.41777 18.022 5.76101 16.6755 7.10424C15.3291 8.44747 15.3291 9.11908 14.6558 9.11908H11.9629Z" fill="#0C0A35"/>
</svg>
