<svg width="27" height="27" viewBox="0 0 27 27" fill="none" xmlns="http://www.w3.org/2000/svg">
<path d="M14.3169 16.0907C14.9934 16.0907 15.6698 16.7906 16.3462 18.1906C17.6991 19.5906 18.3756 20.9906 21.0814 20.9906C22.4343 20.9906 23.7872 20.2906 24.4636 19.5906C25.14 18.8906 25.14 17.4906 25.8165 16.7906C26.4929 14.6907 25.8165 12.5907 25.14 11.1907C24.4636 9.0907 21.7578 7.69071 20.4049 9.0907C19.7285 9.79069 19.052 10.4907 18.3756 10.4907C18.3756 10.4907 17.6991 10.4907 17.6991 9.7907C17.6991 8.3907 19.052 8.3907 19.052 6.99071C19.7285 5.59072 19.7285 4.19073 17.6991 1.39075C15.6698 -0.00924543 11.6111 -0.0092428 9.58179 2.09074C7.55246 3.49073 7.55246 4.89072 7.55246 6.99071C8.22891 8.3907 8.90535 9.0907 8.90535 10.4907C8.90535 11.1907 8.90535 11.1907 8.2289 11.1907C7.55246 11.1907 7.55246 10.4907 6.87601 9.7907C5.52312 9.0907 2.81734 9.79069 1.46445 11.1907C0.788005 13.2907 0.11156 15.3907 0.788006 16.7906C0.788006 18.1906 1.46445 18.8906 2.1409 19.5906C2.81734 20.9906 4.84668 21.6906 5.52312 20.9906C8.2289 20.9906 8.90535 19.5906 10.2582 18.1906C12.2876 16.7906 12.2876 16.0907 12.964 16.0907H14.3169Z" fill="#0C0A35"/>
<path d="M12.6333 15.9693C12.6333 16.6409 12.6333 17.3125 12.6333 17.9841C12.6333 18.6557 12.6333 19.3273 12.6333 19.9989C12.6333 22.0138 11.2869 24.7002 9.94043 26.0435C11.2869 26.0435 15.3263 26.0435 17.3459 26.0435C15.3263 24.7002 14.653 22.0138 14.653 19.9989C14.653 19.3273 14.653 18.6557 14.653 17.9841C14.653 17.3125 14.653 16.6409 14.653 15.9693H12.6333Z" fill="#0C0A35"/>
</svg>
