<svg width="32" height="47" viewBox="0 0 32 47" fill="none" xmlns="http://www.w3.org/2000/svg">
<path d="M16.3562 38.0295C11.8428 38.0295 7.97423 36.0966 5.39518 32.8752C2.17136 29.0096 0.881836 24.4996 0.881836 19.3454C0.881836 13.5469 2.17136 9.03697 5.39518 5.17131C7.97423 1.30564 11.8428 0.0170898 16.3562 0.0170898C20.8695 0.0170898 24.7381 1.94992 27.3171 5.17131C29.8962 8.3927 31.1857 12.9026 31.1857 18.7011C31.1857 23.2111 29.8962 27.721 27.9619 30.9424C26.0276 34.8081 22.8038 36.7409 19.58 37.3852V38.0295C19.58 40.6066 21.5143 41.8951 24.7381 41.8951C26.0276 41.8951 27.9619 41.8951 29.2514 41.2508V45.1165C27.9619 45.7608 26.6724 46.4051 25.3828 46.4051C22.8038 46.4051 20.2247 45.7608 18.9352 44.4722C17.0009 43.1837 16.3562 41.2509 16.3562 38.0295ZM16.3562 34.1638C19.58 34.1638 22.159 32.8752 24.0933 29.6539C26.0276 26.4325 26.6724 23.2111 26.6724 18.0569C26.6724 13.5469 26.0276 9.68125 24.0933 7.10414C21.5143 4.52703 18.9352 3.23848 15.7114 3.23848C12.4876 3.23848 9.90852 4.52703 7.97423 7.74842C6.68471 10.3255 5.39518 14.1912 5.39518 19.3454C5.39518 23.8554 6.03994 27.721 7.97423 30.2981C10.5533 32.8752 13.1323 34.1638 16.3562 34.1638Z" fill="#0C0A35"/>
</svg>
