<svg width="31" height="46" viewBox="0 0 31 46" fill="none" xmlns="http://www.w3.org/2000/svg">
<path d="M17.2846 38.0418C12.7883 38.4344 8.76628 36.8454 5.9168 33.8606C2.36896 30.29 0.692037 25.9093 0.243714 20.7746C-0.26065 14.9981 0.631706 10.3931 3.50706 6.26164C5.7401 2.18629 9.48193 0.566125 13.9782 0.173546C18.4744 -0.219033 22.4964 1.36998 25.3459 4.35482C28.1954 7.33967 29.8723 11.7204 30.3767 17.4969C30.769 21.9897 29.8766 26.5947 28.2299 29.9722C26.6391 33.9914 23.5957 36.1973 20.4401 37.1196L20.4962 37.7614C20.7203 40.3288 22.7594 41.4442 25.971 41.1638C27.2556 41.0516 29.1826 40.8834 30.4111 40.1294L30.7474 43.9804C29.5188 44.7344 28.2902 45.4884 27.0056 45.6006C24.4363 45.8249 21.811 45.4074 20.4142 44.2359C18.3752 43.1204 17.5648 41.251 17.2846 38.0418ZM16.9483 34.1908C20.1599 33.9104 22.6171 32.4024 24.2639 29.025C25.9106 25.6476 26.2727 22.3823 25.8244 17.2476C25.4321 12.7548 24.4536 8.95984 22.3024 6.56075C19.509 4.21773 16.8276 3.15839 13.6161 3.43881C10.4045 3.71922 7.94726 5.22722 6.3005 8.60465C5.24002 11.2842 4.29163 15.2473 4.73995 20.382C5.13223 24.8749 6.1108 28.6698 8.26192 31.0689C11.0554 33.4119 13.7367 34.4712 16.9483 34.1908Z" fill="#D6002B"/>
</svg>
