<svg width="32" height="47" viewBox="0 0 32 47" fill="none" xmlns="http://www.w3.org/2000/svg">
<path d="M16.2324 8.61805C20.7457 8.61805 24.6143 10.5509 27.1934 13.7723C29.7724 17.6379 31.0619 22.1479 31.0619 27.3021C31.0619 33.1006 29.7724 37.6105 26.5486 41.4762C23.9695 45.3419 20.101 46.6304 15.5876 46.6304C11.0743 46.6304 7.20568 44.6976 4.62663 41.4762C2.04758 38.2548 0.113281 33.1006 0.113281 27.9464C0.113281 23.4364 1.40281 18.9265 3.3371 15.7051C5.27139 11.8394 8.4952 9.9066 11.719 9.26232V8.61805C11.719 6.04094 9.78473 4.75237 6.56092 4.75237C5.27139 4.75237 3.33709 4.75239 2.04757 5.39667V1.53099C3.33709 0.886709 4.62664 0.886719 5.91616 0.886719C8.49522 0.886719 11.0743 1.53099 12.3638 2.81955C14.9429 3.46382 16.2324 5.39667 16.2324 8.61805ZM16.2324 11.8394C13.0086 11.8394 10.4295 13.128 8.4952 16.3494C6.56091 19.5708 5.91616 22.7922 5.91616 27.9464C5.91616 32.4563 6.56091 36.322 8.4952 38.8991C10.4295 41.4762 13.0086 42.7648 16.2324 42.7648C19.4562 42.7648 22.0352 41.4762 23.9695 38.2548C25.9038 35.6777 26.5486 31.812 26.5486 26.6578C26.5486 22.1479 25.9038 18.2822 23.9695 15.7051C22.0352 13.7723 19.4562 11.8394 16.2324 11.8394Z" fill="#0C0A35"/>
</svg>
