<svg width="24" height="24" viewBox="0 0 24 24" fill="none" xmlns="http://www.w3.org/2000/svg">
<path d="M11.3652 10.7801C11.3652 10.1359 11.3652 8.84729 11.3652 8.20301C11.3652 7.55874 11.3652 6.91446 11.3652 6.27019C11.3652 3.69308 10.0757 1.76023 8.78613 0.47168C10.0757 0.47168 13.9442 0.47168 15.8785 0.47168C13.9442 1.76023 13.2995 4.33735 13.2995 6.27019C13.2995 6.91446 13.2995 7.55874 13.2995 8.20301C13.2995 8.84729 13.2995 10.1359 13.2995 10.7801H11.3652Z" fill="#0C0A35"/>
<path d="M12.0097 8.20225C10.7201 6.26942 8.14108 4.33659 5.56202 4.98087C2.98297 4.98087 0.403921 6.9137 0.403921 9.49081C-0.240843 11.4236 1.04868 14.0008 2.33821 15.2893C3.62773 17.2221 6.20678 17.8664 7.49631 19.155C9.4306 20.4435 12.0097 23.6649 12.0097 23.6649C12.0097 23.6649 14.5887 20.4435 16.523 19.155C18.4573 17.8664 20.3916 16.5779 21.6811 15.2893C22.9706 13.3565 24.2602 11.4236 23.6154 9.49081C22.9706 6.9137 20.3916 4.98087 18.4573 4.98087C15.8782 4.98087 13.2992 6.26942 12.0097 8.20225Z" fill="#0C0A35"/>
</svg>
