<svg width="25" height="24" viewBox="0 0 25 24" fill="none" xmlns="http://www.w3.org/2000/svg">
<path d="M12.3333 0C5.51976 0 0 5.37135 0 12C0 18.6286 5.52056 24 12.3333 24C19.1469 24 24.6667 18.6286 24.6667 12C24.6667 5.37135 19.1461 0 12.3333 0ZM18.391 8.22116L16.3667 17.5022C16.2171 18.1603 15.8145 18.3197 15.2528 18.0101L12.1694 15.799L10.6823 17.1925C10.5183 17.352 10.3791 17.4875 10.0608 17.4875L10.2796 14.4341L15.9935 9.4111C16.2426 9.19819 15.9386 9.07742 15.61 9.29032L8.54819 13.6157L5.50465 12.6914C4.84342 12.4885 4.8283 12.048 5.64389 11.7383L17.5348 7.27665C18.087 7.0831 18.5692 7.40748 18.3902 8.22039L18.391 8.22116Z" fill="white"/>
</svg>
