<svg width="939" height="79" viewBox="0 0 939 79" fill="none" xmlns="http://www.w3.org/2000/svg">
<path d="M0.616211 2.40818V17.8162H22.7922V77.0002H38.3442V17.8162H60.5202V2.40818H0.616211Z" fill="black"/>
<path d="M0.616211 2.40818V17.8162H22.7922V77.0002H38.3442V17.8162H60.5202V2.40818H0.616211Z" fill="url(#paint0_linear_246_562)"/>
<path d="M72.0571 2.40818V77.0002H87.1771V47.3362H115.545V77.0002H130.809V2.40818H115.545V32.2162H87.1771V2.40818H72.0571Z" fill="black"/>
<path d="M72.0571 2.40818V77.0002H87.1771V47.3362H115.545V77.0002H130.809V2.40818H115.545V32.2162H87.1771V2.40818H72.0571Z" fill="url(#paint1_linear_246_562)"/>
<path d="M142.37 2.55218V77.0002H191.618V61.8802H157.49V46.7602H190.322V32.7922H157.49V17.6722H191.618V2.55218H142.37Z" fill="black"/>
<path d="M142.37 2.55218V77.0002H191.618V61.8802H157.49V46.7602H190.322V32.7922H157.49V17.6722H191.618V2.55218H142.37Z" fill="url(#paint2_linear_246_562)"/>
<path d="M227.588 2.40818V77.0002H242.708V61.0162H254.804C270.5 61.0162 282.884 47.6242 282.884 31.7842C282.884 15.9442 270.5 2.40818 254.804 2.40818H227.588ZM242.708 17.5282H254.804C261.86 17.5282 267.764 23.5762 267.764 31.7842C267.764 39.8482 261.86 45.8962 254.804 45.8962H242.708V17.5282Z" fill="black"/>
<path d="M227.588 2.40818V77.0002H242.708V61.0162H254.804C270.5 61.0162 282.884 47.6242 282.884 31.7842C282.884 15.9442 270.5 2.40818 254.804 2.40818H227.588ZM242.708 17.5282H254.804C261.86 17.5282 267.764 23.5762 267.764 31.7842C267.764 39.8482 261.86 45.8962 254.804 45.8962H242.708V17.5282Z" fill="url(#paint3_linear_246_562)"/>
<path d="M333.553 0.680176C311.809 0.680176 294.241 18.2482 294.241 39.8482C294.241 61.4482 311.809 78.8722 333.553 78.8722C355.297 78.8722 372.865 61.4482 372.865 39.8482C372.865 18.2482 355.297 0.680176 333.553 0.680176ZM333.553 15.3682C347.089 15.3682 358.033 26.3122 358.033 39.8482C358.033 53.2402 347.089 64.1842 333.553 64.1842C320.017 64.1842 309.073 53.2402 309.073 39.8482C309.073 26.3122 320.017 15.3682 333.553 15.3682Z" fill="black"/>
<path d="M333.553 0.680176C311.809 0.680176 294.241 18.2482 294.241 39.8482C294.241 61.4482 311.809 78.8722 333.553 78.8722C355.297 78.8722 372.865 61.4482 372.865 39.8482C372.865 18.2482 355.297 0.680176 333.553 0.680176ZM333.553 15.3682C347.089 15.3682 358.033 26.3122 358.033 39.8482C358.033 53.2402 347.089 64.1842 333.553 64.1842C320.017 64.1842 309.073 53.2402 309.073 39.8482C309.073 26.3122 320.017 15.3682 333.553 15.3682Z" fill="url(#paint4_linear_246_562)"/>
<path d="M382.835 2.40818V77.0002H397.955V67.2082L410.195 51.9442L430.067 77.0002H449.507L419.699 39.8482L449.507 2.40818H430.211L397.955 42.8722V2.40818H382.835Z" fill="black"/>
<path d="M382.835 2.40818V77.0002H397.955V67.2082L410.195 51.9442L430.067 77.0002H449.507L419.699 39.8482L449.507 2.40818H430.211L397.955 42.8722V2.40818H382.835Z" fill="url(#paint5_linear_246_562)"/>
<path d="M458.213 2.55218V77.0002H507.461V61.8802H473.333V46.7602H506.165V32.7922H473.333V17.6722H507.461V2.55218H458.213Z" fill="black"/>
<path d="M458.213 2.55218V77.0002H507.461V61.8802H473.333V46.7602H506.165V32.7922H473.333V17.6722H507.461V2.55218H458.213Z" fill="url(#paint6_linear_246_562)"/>
<path d="M518.963 2.40818V77.0002H534.083V61.0162H539.699L555.971 77.0002H576.275L557.411 58.5682C567.491 53.9602 574.259 43.5922 574.259 31.7842C574.259 15.9442 561.875 2.40818 546.179 2.40818H518.963ZM534.083 17.5282H546.179C553.235 17.5282 559.139 23.5762 559.139 31.7842C559.139 39.8482 553.235 45.8962 546.179 45.8962H534.083V17.5282Z" fill="black"/>
<path d="M518.963 2.40818V77.0002H534.083V61.0162H539.699L555.971 77.0002H576.275L557.411 58.5682C567.491 53.9602 574.259 43.5922 574.259 31.7842C574.259 15.9442 561.875 2.40818 546.179 2.40818H518.963ZM534.083 17.5282H546.179C553.235 17.5282 559.139 23.5762 559.139 31.7842C559.139 39.8482 553.235 45.8962 546.179 45.8962H534.083V17.5282Z" fill="url(#paint7_linear_246_562)"/>
<path d="M612.198 2.55218V77.0002H627.318V47.6242H660.438V32.3602H627.318V17.8162H661.446V2.55218H627.75H612.198Z" fill="black"/>
<path d="M612.198 2.55218V77.0002H627.318V47.6242H660.438V32.3602H627.318V17.8162H661.446V2.55218H627.75H612.198Z" fill="url(#paint8_linear_246_562)"/>
<path d="M700.02 2.40818L672.948 77.0002H689.076L694.836 61.0162H721.476L727.236 77.0002H743.364L716.148 2.40818H700.02ZM708.084 24.5842L715.86 45.8962H700.452L708.084 24.5842Z" fill="black"/>
<path d="M700.02 2.40818L672.948 77.0002H689.076L694.836 61.0162H721.476L727.236 77.0002H743.364L716.148 2.40818H700.02ZM708.084 24.5842L715.86 45.8962H700.452L708.084 24.5842Z" fill="url(#paint9_linear_246_562)"/>
<path d="M791.325 0.680176C767.421 0.680176 750.573 18.5362 750.573 39.8482C750.573 61.0162 767.421 78.8722 791.325 78.8722C802.125 78.8722 811.341 75.1282 818.397 69.3682L809.613 56.2642C804.429 60.1522 798.381 62.7442 791.469 62.7442C779.085 62.6002 767.133 54.6802 766.701 39.8482C767.133 24.8722 779.085 16.9522 791.469 16.8082C798.381 16.8082 804.429 19.4002 809.613 23.2882L818.397 10.1842C811.341 4.42418 802.125 0.680176 791.325 0.680176Z" fill="black"/>
<path d="M791.325 0.680176C767.421 0.680176 750.573 18.5362 750.573 39.8482C750.573 61.0162 767.421 78.8722 791.325 78.8722C802.125 78.8722 811.341 75.1282 818.397 69.3682L809.613 56.2642C804.429 60.1522 798.381 62.7442 791.469 62.7442C779.085 62.6002 767.133 54.6802 766.701 39.8482C767.133 24.8722 779.085 16.9522 791.469 16.8082C798.381 16.8082 804.429 19.4002 809.613 23.2882L818.397 10.1842C811.341 4.42418 802.125 0.680176 791.325 0.680176Z" fill="url(#paint10_linear_246_562)"/>
<path d="M827.776 2.55218V77.0002H877.024V61.8802H842.896V46.7602H875.728V32.7922H842.896V17.6722H877.024V2.55218H827.776Z" fill="black"/>
<path d="M827.776 2.55218V77.0002H877.024V61.8802H842.896V46.7602H875.728V32.7922H842.896V17.6722H877.024V2.55218H827.776Z" fill="url(#paint11_linear_246_562)"/>
<path d="M912.497 0.680176C899.249 0.680176 888.161 10.4722 888.161 22.7122C888.161 35.6722 898.961 42.1522 909.473 45.0322C914.657 46.6162 922.865 49.0642 922.865 54.6802C922.865 60.7282 917.105 63.3202 911.921 63.3202C904.721 63.3202 898.673 60.0082 893.489 56.1202L885.713 69.2242C893.057 74.9842 901.409 78.8722 912.065 78.8722C928.193 78.8722 938.417 66.9202 938.417 54.6802V54.5362C938.417 41.8642 928.049 34.2322 915.665 30.9202C911.633 29.6242 903.713 27.1762 903.713 22.7122C903.713 18.2482 908.465 15.8002 912.497 15.8002C917.825 15.8002 921.857 17.8162 925.313 19.9762L933.953 7.59218C928.481 4.28018 922.577 0.680176 912.497 0.680176Z" fill="black"/>
<path d="M912.497 0.680176C899.249 0.680176 888.161 10.4722 888.161 22.7122C888.161 35.6722 898.961 42.1522 909.473 45.0322C914.657 46.6162 922.865 49.0642 922.865 54.6802C922.865 60.7282 917.105 63.3202 911.921 63.3202C904.721 63.3202 898.673 60.0082 893.489 56.1202L885.713 69.2242C893.057 74.9842 901.409 78.8722 912.065 78.8722C928.193 78.8722 938.417 66.9202 938.417 54.6802V54.5362C938.417 41.8642 928.049 34.2322 915.665 30.9202C911.633 29.6242 903.713 27.1762 903.713 22.7122C903.713 18.2482 908.465 15.8002 912.497 15.8002C917.825 15.8002 921.857 17.8162 925.313 19.9762L933.953 7.59218C928.481 4.28018 922.577 0.680176 912.497 0.680176Z" fill="url(#paint12_linear_246_562)"/>
<defs>
<linearGradient id="paint0_linear_246_562" x1="499.874" y1="11.4377" x2="494.49" y2="115.459" gradientUnits="userSpaceOnUse">
<stop offset="0.140625" stop-color="#EBBF97"/>
<stop offset="0.380208" stop-color="#AD8F59"/>
<stop offset="0.828125" stop-color="#98683B"/>
</linearGradient>
<linearGradient id="paint1_linear_246_562" x1="499.874" y1="11.4377" x2="494.49" y2="115.459" gradientUnits="userSpaceOnUse">
<stop offset="0.140625" stop-color="#EBBF97"/>
<stop offset="0.380208" stop-color="#AD8F59"/>
<stop offset="0.828125" stop-color="#98683B"/>
</linearGradient>
<linearGradient id="paint2_linear_246_562" x1="499.874" y1="11.4377" x2="494.49" y2="115.459" gradientUnits="userSpaceOnUse">
<stop offset="0.140625" stop-color="#EBBF97"/>
<stop offset="0.380208" stop-color="#AD8F59"/>
<stop offset="0.828125" stop-color="#98683B"/>
</linearGradient>
<linearGradient id="paint3_linear_246_562" x1="499.874" y1="11.4377" x2="494.49" y2="115.459" gradientUnits="userSpaceOnUse">
<stop offset="0.140625" stop-color="#EBBF97"/>
<stop offset="0.380208" stop-color="#AD8F59"/>
<stop offset="0.828125" stop-color="#98683B"/>
</linearGradient>
<linearGradient id="paint4_linear_246_562" x1="499.874" y1="11.4377" x2="494.49" y2="115.459" gradientUnits="userSpaceOnUse">
<stop offset="0.140625" stop-color="#EBBF97"/>
<stop offset="0.380208" stop-color="#AD8F59"/>
<stop offset="0.828125" stop-color="#98683B"/>
</linearGradient>
<linearGradient id="paint5_linear_246_562" x1="499.874" y1="11.4377" x2="494.49" y2="115.459" gradientUnits="userSpaceOnUse">
<stop offset="0.140625" stop-color="#EBBF97"/>
<stop offset="0.380208" stop-color="#AD8F59"/>
<stop offset="0.828125" stop-color="#98683B"/>
</linearGradient>
<linearGradient id="paint6_linear_246_562" x1="499.874" y1="11.4377" x2="494.49" y2="115.459" gradientUnits="userSpaceOnUse">
<stop offset="0.140625" stop-color="#EBBF97"/>
<stop offset="0.380208" stop-color="#AD8F59"/>
<stop offset="0.828125" stop-color="#98683B"/>
</linearGradient>
<linearGradient id="paint7_linear_246_562" x1="499.874" y1="11.4377" x2="494.49" y2="115.459" gradientUnits="userSpaceOnUse">
<stop offset="0.140625" stop-color="#EBBF97"/>
<stop offset="0.380208" stop-color="#AD8F59"/>
<stop offset="0.828125" stop-color="#98683B"/>
</linearGradient>
<linearGradient id="paint8_linear_246_562" x1="499.874" y1="11.4377" x2="494.49" y2="115.459" gradientUnits="userSpaceOnUse">
<stop offset="0.140625" stop-color="#EBBF97"/>
<stop offset="0.380208" stop-color="#AD8F59"/>
<stop offset="0.828125" stop-color="#98683B"/>
</linearGradient>
<linearGradient id="paint9_linear_246_562" x1="499.874" y1="11.4377" x2="494.49" y2="115.459" gradientUnits="userSpaceOnUse">
<stop offset="0.140625" stop-color="#EBBF97"/>
<stop offset="0.380208" stop-color="#AD8F59"/>
<stop offset="0.828125" stop-color="#98683B"/>
</linearGradient>
<linearGradient id="paint10_linear_246_562" x1="499.874" y1="11.4377" x2="494.49" y2="115.459" gradientUnits="userSpaceOnUse">
<stop offset="0.140625" stop-color="#EBBF97"/>
<stop offset="0.380208" stop-color="#AD8F59"/>
<stop offset="0.828125" stop-color="#98683B"/>
</linearGradient>
<linearGradient id="paint11_linear_246_562" x1="499.874" y1="11.4377" x2="494.49" y2="115.459" gradientUnits="userSpaceOnUse">
<stop offset="0.140625" stop-color="#EBBF97"/>
<stop offset="0.380208" stop-color="#AD8F59"/>
<stop offset="0.828125" stop-color="#98683B"/>
</linearGradient>
<linearGradient id="paint12_linear_246_562" x1="499.874" y1="11.4377" x2="494.49" y2="115.459" gradientUnits="userSpaceOnUse">
<stop offset="0.140625" stop-color="#EBBF97"/>
<stop offset="0.380208" stop-color="#AD8F59"/>
<stop offset="0.828125" stop-color="#98683B"/>
</linearGradient>
</defs>
</svg>
