<?xml version="1.0" encoding="UTF-8"?>
<svg xmlns="http://www.w3.org/2000/svg" xmlns:xlink="http://www.w3.org/1999/xlink" viewBox="0 0 60 60" width="60px" height="60px">
<g id="surface78106203">
<path style=" stroke:none;fill-rule:nonzero;fill:rgb(80.000001%,80.000001%,80.000001%);fill-opacity:1;" d="M 30 60 C 13.429688 60 0 46.570312 0 30 C 0 13.429688 13.429688 0 30 0 C 46.570312 0 60 13.429688 60 30 C 60 46.570312 46.570312 60 30 60 Z M 30 60 "/>
<path style=" stroke:none;fill-rule:nonzero;fill:rgb(0%,0%,0%);fill-opacity:1;" d="M 30 -1.242188 C 18.113281 -1.242188 2.683594 1.738281 2.683594 1.738281 L 2.644531 1.78125 C -2.773438 2.648438 -6.921875 7.300781 -6.921875 12.960938 L -6.921875 47.042969 C -6.910156 52.628906 -2.84375 57.375 2.671875 58.242188 L 2.679688 58.261719 C 2.679688 58.261719 18.113281 61.246094 30 61.246094 C 41.886719 61.246094 57.316406 58.261719 57.316406 58.261719 L 57.324219 58.253906 C 62.84375 57.386719 66.914062 52.632812 66.921875 47.042969 L 66.921875 12.960938 C 66.910156 7.375 62.847656 2.625 57.328125 1.753906 L 57.316406 1.738281 C 57.316406 1.738281 41.886719 -1.242188 30 -1.242188 Z M 21.480469 16.929688 L 44.199219 30 L 21.480469 43.066406 Z M 21.480469 16.929688 "/>
</g>
</svg>
